<svg xmlns="http://www.w3.org/2000/svg" width="538" height="152" viewBox="0 0 538 152" role="img" aria-labelledby="tt td">
<title id="tt">claude-code-statusline</title>
<desc id="td">The status line acting out its four lines in turn: the context bar fills and turns red with a /compact hint, a rate-limit bar shows overspend past the clock notch, git counts tick up and the repo link is clicked, and a fox companion types its line.</desc>
<style>text{font-family:'Cascadia Mono', 'SF Mono', ui-monospace, Menlo, Consolas, 'Liberation Mono', monospace;white-space:pre}.sans{font-family:-apple-system, BlinkMacSystemFont, 'Segoe UI', Helvetica, Arial, sans-serif}@keyframes w25_298{0%,2.083%{opacity:0}3.083%,23.667%{opacity:1}24.833%,100%{opacity:0}}@keyframes w34_298{0%,2.847%{opacity:0}3.847%,23.667%{opacity:1}24.833%,100%{opacity:0}}@keyframes w43_298{0%,3.611%{opacity:0}4.611%,23.667%{opacity:1}24.833%,100%{opacity:0}}@keyframes w53_298{0%,4.375%{opacity:0}5.375%,23.667%{opacity:1}24.833%,100%{opacity:0}}@keyframes w62_298{0%,5.139%{opacity:0}6.139%,23.667%{opacity:1}24.833%,100%{opacity:0}}@keyframes w71_298{0%,5.903%{opacity:0}6.903%,23.667%{opacity:1}24.833%,100%{opacity:0}}@keyframes w80_298{0%,6.667%{opacity:0}7.667%,23.667%{opacity:1}24.833%,100%{opacity:0}}@keyframes w25_55{0%,2.083%{opacity:0}3.083%,3.417%{opacity:1}4.583%,100%{opacity:0}}@keyframes w50_77{0%,4.167%{opacity:0}5.167%,5.250%{opacity:1}6.417%,100%{opacity:0}}@keyframes w72_100{0%,6.000%{opacity:0}7.000%,7.167%{opacity:1}8.333%,100%{opacity:0}}@keyframes w95_298{0%,7.917%{opacity:0}8.917%,23.667%{opacity:1}24.833%,100%{opacity:0}}@keyframes w112_298{0%,9.333%{opacity:0}10.333%,23.667%{opacity:1}24.833%,100%{opacity:0}}@keyframes w140_298{0%,11.667%{opacity:0}12.667%,23.667%{opacity:1}24.833%,100%{opacity:0}}@keyframes w345_598{0%,28.750%{opacity:0}29.750%,48.667%{opacity:1}49.833%,100%{opacity:0}}@keyframes w353_598{0%,29.417%{opacity:0}30.417%,48.667%{opacity:1}49.833%,100%{opacity:0}}@keyframes w361_598{0%,30.083%{opacity:0}31.083%,48.667%{opacity:1}49.833%,100%{opacity:0}}@keyframes w325_598{0%,27.083%{opacity:0}28.083%,48.667%{opacity:1}49.833%,100%{opacity:0}}@keyframes w395_598{0%,32.917%{opacity:0}33.917%,48.667%{opacity:1}49.833%,100%{opacity:0}}@keyframes w410_598{0%,34.167%{opacity:0}35.167%,48.667%{opacity:1}49.833%,100%{opacity:0}}@keyframes w445_598{0%,37.083%{opacity:0}38.083%,48.667%{opacity:1}49.833%,100%{opacity:0}}@keyframes w455_598{0%,37.917%{opacity:0}38.917%,48.667%{opacity:1}49.833%,100%{opacity:0}}@keyframes w485_598{0%,40.417%{opacity:0}41.417%,48.667%{opacity:1}49.833%,100%{opacity:0}}@keyframes w490_598{0%,40.833%{opacity:0}41.833%,48.667%{opacity:1}49.833%,100%{opacity:0}}@keyframes w480_598{0%,40.000%{opacity:0}41.000%,48.667%{opacity:1}49.833%,100%{opacity:0}}@keyframes w510_598{0%,42.500%{opacity:0}43.500%,48.667%{opacity:1}49.833%,100%{opacity:0}}@keyframes w625_650{0%,52.083%{opacity:0}53.083%,53.000%{opacity:1}54.167%,100%{opacity:0}}@keyframes w645_670{0%,53.750%{opacity:0}54.750%,54.667%{opacity:1}55.833%,100%{opacity:0}}@keyframes w665_898{0%,55.417%{opacity:0}56.417%,73.667%{opacity:1}74.833%,100%{opacity:0}}@keyframes w695_898{0%,57.917%{opacity:0}58.917%,73.667%{opacity:1}74.833%,100%{opacity:0}}@keyframes w740_898{0%,61.667%{opacity:0}62.667%,73.667%{opacity:1}74.833%,100%{opacity:0}}@keyframes w745_898{0%,62.083%{opacity:0}63.083%,73.667%{opacity:1}74.833%,100%{opacity:0}}@keyframes g745_35{0%,62.083%{transform:scaleX(0);animation-timing-function:ease-out}65.000%,100%{transform:scaleX(1)}}@keyframes w780_898{0%,65.000%{opacity:0}66.000%,73.667%{opacity:1}74.833%,100%{opacity:0}}@keyframes w805_898{0%,67.083%{opacity:0}68.083%,73.667%{opacity:1}74.833%,100%{opacity:0}}@keyframes w920_1198{0%,76.667%{opacity:0}77.667%,98.667%{opacity:1}99.833%,100%{opacity:0}}@keyframes w945_1198{0%,78.750%{opacity:0}79.750%,98.667%{opacity:1}99.833%,100%{opacity:0}}@keyframes g945_150s48{0%,78.750%{transform:scaleX(0);animation-timing-function:steps(48,end)}91.250%,100%{transform:scaleX(1)}}@keyframes w0_298{0%,0.000%{opacity:0}1.000%,23.667%{opacity:1}24.833%,100%{opacity:0}}@keyframes w300_598{0%,25.000%{opacity:0}26.000%,48.667%{opacity:1}49.833%,100%{opacity:0}}@keyframes w600_898{0%,50.000%{opacity:0}51.000%,73.667%{opacity:1}74.833%,100%{opacity:0}}@keyframes w900_1198{0%,75.000%{opacity:0}76.000%,98.667%{opacity:1}99.833%,100%{opacity:0}}.p0{animation:w25_298 12s linear infinite}.p1{animation:w34_298 12s linear infinite}.p2{animation:w43_298 12s linear infinite}.p3{animation:w53_298 12s linear infinite}.p4{animation:w62_298 12s linear infinite}.p5{animation:w71_298 12s linear infinite}.p6{animation:w80_298 12s linear infinite}.p7{animation:w25_55 12s linear infinite}.p8{animation:w50_77 12s linear infinite}.p9{animation:w72_100 12s linear infinite}.p10{animation:w95_298 12s linear infinite}.p11{animation:w112_298 12s linear infinite}.p12{animation:w140_298 12s linear infinite}.p13{animation:w345_598 12s linear infinite}.p14{animation:w353_598 12s linear infinite}.p15{animation:w361_598 12s linear infinite}.p16{animation:w325_598 12s linear infinite}.p17{animation:w395_598 12s linear infinite}.p18{animation:w410_598 12s linear infinite}.p19{animation:w445_598 12s linear infinite}.p20{animation:w455_598 12s linear infinite}.p21{animation:w485_598 12s linear infinite}.p22{animation:w490_598 12s linear infinite}.p23{animation:w480_598 12s linear infinite}.p24{animation:w510_598 12s linear infinite}.p25{animation:w625_650 12s linear infinite}.p26{animation:w645_670 12s linear infinite}.p27{animation:w665_898 12s linear infinite}.p28{animation:w695_898 12s linear infinite}.p29{animation:w740_898 12s linear infinite}.p30{animation:w745_898 12s linear infinite}.p30 rect{transform-box:fill-box;transform-origin:left;animation:g745_35 12s linear infinite}.p31{animation:w780_898 12s linear infinite}.p32{animation:w805_898 12s linear infinite}.p33{animation:w920_1198 12s linear infinite}.p34{animation:w945_1198 12s linear infinite}.p34 .typer{transform-box:fill-box;transform-origin:left;animation:g945_150s48 12s linear infinite}.glow{animation:glow 3s ease-in-out infinite}@keyframes glow{0%{transform:translateY(-27px);opacity:0}30%{opacity:.55}100%{transform:translateY(92px);opacity:0}}@media (prefers-reduced-motion:reduce){.a,.a *,.glow{animation:none!important}.a{opacity:0}.a.final{opacity:1}.tab{opacity:0}.glow{opacity:0}}</style>
<defs><linearGradient id="gl" x1="0" y1="0" x2="0" y2="1"><stop offset="0" stop-color="#fff" stop-opacity="0"/><stop offset=".5" stop-color="#fff" stop-opacity=".9"/><stop offset="1" stop-color="#fff" stop-opacity="0"/></linearGradient><clipPath id="gut"><rect x="7" y="42" width="5" height="92"/></clipPath></defs>
<rect width="538" height="152" fill="#0b0e14"/>
<g id="tabs"><text x="2" y="14" font-size="11" fill="#46505c">01 context</text><g class="a tab" style="animation:w0_298 12s linear infinite"><text x="2" y="14" font-size="11" fill="#ff8c42">01 context</text><rect x="2" y="22" width="66" height="2" fill="#ff8c42"/></g><text x="90" y="14" font-size="11" fill="#46505c">02 limits</text><g class="a tab" style="animation:w300_598 12s linear infinite"><text x="90" y="14" font-size="11" fill="rgb(245,200,91)">02 limits</text><rect x="90" y="22" width="59" height="2" fill="rgb(245,200,91)"/></g><text x="171.4" y="14" font-size="11" fill="#46505c">03 git</text><g class="a tab" style="animation:w600_898 12s linear infinite"><text x="171.4" y="14" font-size="11" fill="rgb(91,245,140)">03 git</text><rect x="171.4" y="22" width="40" height="2" fill="rgb(91,245,140)"/></g><text x="233" y="14" font-size="11" fill="#46505c">04 companion</text><g class="a tab" style="animation:w900_1198 12s linear infinite"><text x="233" y="14" font-size="11" fill="#06b6d4">04 companion</text><rect x="233" y="22" width="79" height="2" fill="#06b6d4"/></g></g>
<rect x="0.5" y="28.5" width="537" height="123" fill="#10141b" stroke="#222a35"/>
<g id="terminal"><rect x="7" y="42" width="5" height="23" fill="rgb(6,182,212)"/><rect x="7" y="65" width="5" height="23" fill="rgb(29,195,184)"/><rect x="7" y="88" width="5" height="23" fill="rgb(51,209,156)"/><rect x="7" y="111" width="5" height="23" fill="rgb(74,222,128)"/><g clip-path="url(#gut)"><rect class="glow" x="7" y="42" width="5" height="27" fill="url(#gl)"/></g><text x="36.4" y="58" fill="rgb(232,116,79)">⏺</text><text x="65.2 72.4 79.6 86.8" y="58" fill="rgb(235,235,235)" font-weight="700">Opus</text><text x="101.2 108.4 115.6" y="58" fill="rgb(235,235,235)" font-weight="700">5.5</text><text x="130.0" y="58" fill="rgb(180,142,245)">✦</text><text x="144.4 151.6 158.8 166.0" y="58" fill="rgb(180,142,245)">high</text><rect x="192.8" y="45.2" width="1.5" height="17.3" fill="#39424e"/><rect x="194.8" y="46.7" width="6.2" height="14.3" fill="#1c222b"/><rect x="202.0" y="46.7" width="6.2" height="14.3" fill="#1c222b"/><rect x="209.2" y="46.7" width="6.2" height="14.3" fill="#1c222b"/><rect x="216.4" y="46.7" width="6.2" height="14.3" fill="#1c222b"/><rect x="223.6" y="46.7" width="6.2" height="14.3" fill="#1c222b"/><rect x="230.8" y="46.7" width="6.2" height="14.3" fill="#1c222b"/><rect x="238.0" y="46.7" width="6.2" height="14.3" fill="#1c222b"/><rect x="245.2" y="46.7" width="6.2" height="14.3" fill="#1c222b"/><rect x="252.4" y="46.7" width="6.2" height="14.3" fill="#1c222b"/><rect x="259.6" y="46.7" width="6.2" height="14.3" fill="#1c222b"/><rect x="266.8" y="46.7" width="6.2" height="14.3" fill="#1c222b"/><rect x="274.0" y="46.7" width="6.2" height="14.3" fill="#1c222b"/><rect x="281.2" y="45.2" width="1.5" height="17.3" fill="#39424e"/><text x="295.6 302.8 310.0" y="58" fill="#39424e" font-weight="700">61%</text><text x="324.4" y="58" fill="#39424e">·</text><text x="338.8" y="58" fill="#39424e">⚠</text><text x="360.4 367.6 374.8 382.0 389.2 396.4 403.6 410.8" y="58" fill="#39424e">/compact</text><text x="432.4" y="58" fill="#39424e">│</text><text x="454.0 461.2 468.4 475.6" y="58" fill="#39424e">+156</text><text x="490.0 497.2 504.4" y="58" fill="#39424e">−23</text><text x="36.4" y="81" fill="rgb(110,110,110)">◷</text><text x="50.8 58.0" y="81" fill="rgb(110,110,110)">5h</text><rect x="77.6" y="68.2" width="1.5" height="17.3" fill="#39424e"/><rect x="79.6" y="69.7" width="6.2" height="14.3" fill="#1c222b"/><rect x="86.8" y="69.7" width="6.2" height="14.3" fill="#1c222b"/><rect x="94.0" y="69.7" width="6.2" height="14.3" fill="#1c222b"/><text x="101.2" y="81" fill="#39424e">│</text><rect x="108.4" y="69.7" width="6.2" height="14.3" fill="#1c222b"/><rect x="115.6" y="69.7" width="6.2" height="14.3" fill="#1c222b"/><rect x="122.8" y="69.7" width="6.2" height="14.3" fill="#1c222b"/><rect x="130.0" y="68.2" width="1.5" height="17.3" fill="#39424e"/><text x="144.4 151.6 158.8" y="81" fill="#39424e">80%</text><text x="173.2" y="81" fill="#39424e">·</text><text x="187.6 194.8 202.0 209.2 216.4" y="81" fill="#39424e">2h30m</text><text x="230.8 238.0 245.2 252.4" y="81" fill="#39424e">left</text><text x="274.0" y="81" fill="#39424e">│</text><text x="295.6 302.8" y="81" fill="#39424e">7d</text><rect x="322.4" y="68.2" width="1.5" height="17.3" fill="#39424e"/><rect x="324.4" y="69.7" width="6.2" height="14.3" fill="#1c222b"/><rect x="331.6" y="69.7" width="6.2" height="14.3" fill="#1c222b"/><rect x="338.8" y="69.7" width="6.2" height="14.3" fill="#1c222b"/><text x="346.0" y="81" fill="#39424e">│</text><rect x="353.2" y="69.7" width="6.2" height="14.3" fill="#1c222b"/><rect x="360.4" y="69.7" width="6.2" height="14.3" fill="#1c222b"/><rect x="367.6" y="69.7" width="6.2" height="14.3" fill="#1c222b"/><rect x="374.8" y="68.2" width="1.5" height="17.3" fill="#39424e"/><text x="389.2 396.4 403.6" y="81" fill="#39424e">41%</text><text x="418.0" y="81" fill="#39424e">·</text><text x="432.4 439.6 446.8 454.0" y="81" fill="#39424e">3d0h</text><text x="468.4 475.6 482.8 490.0" y="81" fill="#39424e">left</text><text x="36.4" y="104" fill="#d7dce2">📁</text><text x="65.2" y="104" fill="rgb(6,182,212)">m</text><text x="72.4" y="104" fill="rgb(34,199,177)">y</text><text x="79.6" y="104" fill="rgb(63,215,142)">-</text><text x="86.8" y="104" fill="rgb(40,202,170)">a</text><text x="94.0" y="104" fill="rgb(17,189,198)">p</text><text x="101.2" y="104" fill="rgb(46,205,163)">p</text><text x="115.6" y="104" fill="rgb(70,70,70)">:</text><text x="130.0 137.2 144.4 151.6 158.8 166.0 173.2 180.4 187.6 194.8" y="104" fill="rgb(245,200,91)">feat/souls</text><text x="209.2" y="104" fill="#39424e">·</text><text x="223.6" y="104" fill="#39424e">✚</text><text x="238.0" y="104" fill="#39424e">3</text><text x="252.4" y="104" fill="#39424e">·</text><text x="266.8 274.0" y="104" fill="#39424e">⇡2</text><text x="288.4" y="104" fill="#39424e">·</text><text x="302.8 310.0 317.2 324.4 331.6 338.8 346.0 353.2 360.4 367.6 374.8 382.0 389.2" y="104" fill="#39424e">gh:you/my-app</text><text x="403.6" y="104" fill="#39424e">·</text><text x="418.0 425.2" y="104" fill="#39424e">PR</text><text x="439.6 446.8 454.0" y="104" fill="#39424e">#12</text><text x="468.4 475.6 482.8 490.0 497.2 504.4 511.6 518.8" y="104" fill="#39424e">approved</text><text x="36.4 43.6" y="127" fill="#39424e">╰─</text><text x="58.0" y="127" fill="#39424e">🦊</text><text x="79.6" y="127" fill="#39424e" font-style="italic">3</text><text x="94.0 101.2 108.4 115.6 122.8" y="127" fill="#39424e" font-style="italic">files</text><text x="137.2 144.4 151.6 158.8 166.0" y="127" fill="#39424e" font-style="italic">dirty</text><text x="180.4 187.6 194.8" y="127" fill="#39424e" font-style="italic">and</text><text x="209.2 216.4" y="127" fill="#39424e" font-style="italic">no</text><text x="230.8 238.0 245.2 252.4 259.6 266.8 274.0" y="127" fill="#39424e" font-style="italic">commit.</text><text x="288.4 295.6 302.8 310.0 317.2 324.4" y="127" fill="#39424e" font-style="italic">living</text><text x="338.8 346.0 353.2 360.4 367.6 374.8 382.0 389.2 396.4 403.6 410.8 418.0" y="127" fill="#39424e" font-style="italic">dangerously.</text><text x="295.6 302.8" y="81" fill="rgb(110,110,110)">7d</text><g class="a p0 final"><rect x="194.8" y="46.7" width="6.2" height="14.3" fill="rgb(91,158,245)"/></g><g class="a p1 final"><rect x="202.0" y="46.7" width="6.2" height="14.3" fill="rgb(134,170,202)"/></g><g class="a p2 final"><rect x="209.2" y="46.7" width="6.2" height="14.3" fill="rgb(177,181,159)"/></g><g class="a p3 final"><rect x="216.4" y="46.7" width="6.2" height="14.3" fill="rgb(219,193,117)"/></g><g class="a p4 final"><rect x="223.6" y="46.7" width="6.2" height="14.3" fill="rgb(248,180,83)"/></g><g class="a p5 final"><rect x="230.8" y="46.7" width="6.2" height="14.3" fill="rgb(253,132,70)"/></g><g class="a p6 final"><rect x="238.0" y="46.7" width="6.2" height="14.3" fill="rgb(245,91,91)"/></g><g class="a p7"><rect x="294.6" y="45.2" width="23.6" height="17.3" fill="#10141b"/><text x="295.6 302.8 310.0" y="58" fill="#39424e">18%</text></g><g class="a p8"><rect x="294.6" y="45.2" width="23.6" height="17.3" fill="#10141b"/><text x="295.6 302.8 310.0" y="58" fill="rgb(110,110,110)">35%</text></g><g class="a p9"><rect x="294.6" y="45.2" width="23.6" height="17.3" fill="#10141b"/><text x="295.6 302.8 310.0" y="58" fill="rgb(245,200,91)">45%</text></g><g class="a p10 final"><rect x="294.6" y="45.2" width="23.6" height="17.3" fill="#10141b"/><text x="295.6 302.8 310.0" y="58" fill="rgb(245,91,91)" font-weight="700">61%</text></g><g class="a p11 final"><rect x="323.4" y="45.2" width="95.6" height="17.3" fill="#10141b"/><text x="324.4" y="58" fill="rgb(70,70,70)">·</text><text x="338.8" y="58" fill="rgb(245,91,91)">⚠</text><text x="360.4 367.6 374.8 382.0 389.2 396.4 403.6 410.8" y="58" fill="rgb(245,91,91)">/compact</text></g><g class="a p12 final"><text x="432.4" y="58" fill="rgb(70,70,70)">│</text><text x="454.0 461.2 468.4 475.6" y="58" fill="rgb(91,245,140)">+156</text><text x="490.0 497.2 504.4" y="58" fill="rgb(245,91,91)">−23</text></g><g class="a p13 final"><rect x="79.6" y="69.7" width="6.2" height="14.3" fill="rgb(245,200,91)"/></g><g class="a p14 final"><rect x="86.8" y="69.7" width="6.2" height="14.3" fill="rgb(245,200,91)"/></g><g class="a p15 final"><rect x="94.0" y="69.7" width="6.2" height="14.3" fill="rgb(245,200,91)"/></g><g class="a p16 final"><rect x="100.2" y="68.2" width="9.2" height="17.3" fill="#10141b"/><text x="101.2" y="81" fill="rgb(235,235,235)">│</text></g><g class="a p17 final"><rect x="108.4" y="69.7" width="6.2" height="14.3" fill="rgb(245,91,91)"/></g><g class="a p18 final"><rect x="115.6" y="69.7" width="6.2" height="14.3" fill="rgb(245,91,91)"/></g><g class="a p19 final"><rect x="143.4" y="68.2" width="23.6" height="17.3" fill="#10141b"/><text x="144.4 151.6 158.8" y="81" fill="rgb(245,91,91)">80%</text></g><g class="a p20 final"><text x="173.2" y="81" fill="rgb(70,70,70)">·</text><text x="187.6 194.8 202.0 209.2 216.4" y="81" fill="rgb(110,110,110)">2h30m</text><text x="230.8 238.0 245.2 252.4" y="81" fill="rgb(110,110,110)">left</text></g><g class="a p21 final"><rect x="324.4" y="69.7" width="6.2" height="14.3" fill="rgb(91,245,140)"/></g><g class="a p22 final"><rect x="331.6" y="69.7" width="6.2" height="14.3" fill="rgb(91,245,140)"/></g><g class="a p23 final"><rect x="345.0" y="68.2" width="9.2" height="17.3" fill="#10141b"/><text x="346.0" y="81" fill="rgb(235,235,235)">│</text></g><g class="a p24 final"><rect x="388.2" y="68.2" width="110.0" height="17.3" fill="#10141b"/><text x="389.2 396.4 403.6" y="81" fill="rgb(110,110,110)">41%</text><text x="418.0" y="81" fill="rgb(70,70,70)">·</text><text x="432.4 439.6 446.8 454.0" y="81" fill="rgb(110,110,110)">3d0h</text><text x="468.4 475.6 482.8 490.0" y="81" fill="rgb(110,110,110)">left</text></g><g class="a p25"><rect x="222.6" y="91.2" width="23.6" height="17.3" fill="#10141b"/><text x="223.6" y="104" fill="rgb(245,200,91)">✚</text><text x="238.0" y="104" fill="rgb(245,200,91)">1</text></g><g class="a p26"><rect x="222.6" y="91.2" width="23.6" height="17.3" fill="#10141b"/><text x="223.6" y="104" fill="rgb(245,200,91)">✚</text><text x="238.0" y="104" fill="rgb(245,200,91)">2</text></g><g class="a p27 final"><rect x="222.6" y="91.2" width="23.6" height="17.3" fill="#10141b"/><text x="223.6" y="104" fill="rgb(245,200,91)">✚</text><text x="238.0" y="104" fill="rgb(245,200,91)">3</text></g><g class="a p28 final"><rect x="265.8" y="91.2" width="16.4" height="17.3" fill="#10141b"/><text x="266.8 274.0" y="104" fill="rgb(245,200,91)">⇡2</text></g><g class="a p29 final"><rect x="301.8" y="91.2" width="95.6" height="17.3" fill="#10141b"/><text x="302.8 310.0 317.2 324.4 331.6 338.8 346.0 353.2 360.4 367.6 374.8 382.0 389.2" y="104" fill="#9fb4c8">gh:you/my-app</text></g><g class="a p30 final"><rect x="302.8" y="107.8" width="93.6" height="1.6" fill="#9fb4c8"/></g><g class="a p31 final"><path d="M354.3 106.3 l0 11.3 l3 -3 l2.3 4.5 l1.8 -0.9 l-2.3 -4.5 l4.1 0 z" fill="#eef2f6" stroke="#10141b" stroke-width="1"/></g><g class="a p32 final"><rect x="417.0" y="91.2" width="110.0" height="17.3" fill="#10141b"/><text x="418.0 425.2" y="104" fill="rgb(91,245,140)">PR</text><text x="439.6 446.8 454.0" y="104" fill="rgb(91,245,140)">#12</text><text x="468.4 475.6 482.8 490.0 497.2 504.4 511.6 518.8" y="104" fill="rgb(91,245,140)">approved</text></g><g class="a p33 final"><rect x="35.4" y="114.2" width="16.4" height="17.3" fill="#10141b"/><text x="36.4 43.6" y="127" fill="#06b6d4">╰─</text></g><g class="a p34 final"><clipPath id="typing"><rect class="typer" x="79.6" y="113.5" width="345.6" height="19.5"/></clipPath><g clip-path="url(#typing)"><rect x="78.6" y="114.2" width="347.6" height="17.3" fill="#10141b"/><text x="79.6" y="127" fill="rgb(170,170,170)" font-style="italic">3</text><text x="94.0 101.2 108.4 115.6 122.8" y="127" fill="rgb(170,170,170)" font-style="italic">files</text><text x="137.2 144.4 151.6 158.8 166.0" y="127" fill="rgb(170,170,170)" font-style="italic">dirty</text><text x="180.4 187.6 194.8" y="127" fill="rgb(170,170,170)" font-style="italic">and</text><text x="209.2 216.4" y="127" fill="rgb(170,170,170)" font-style="italic">no</text><text x="230.8 238.0 245.2 252.4 259.6 266.8 274.0" y="127" fill="rgb(170,170,170)" font-style="italic">commit.</text><text x="288.4 295.6 302.8 310.0 317.2 324.4" y="127" fill="rgb(170,170,170)" font-style="italic">living</text><text x="338.8 346.0 353.2 360.4 367.6 374.8 382.0 389.2 396.4 403.6 410.8 418.0" y="127" fill="rgb(170,170,170)" font-style="italic">dangerously.</text></g></g></g>
</svg>
